<svg xmlns="http://www.w3.org/2000/svg" xmlns:xlink="http://www.w3.org/1999/xlink" width="32" height="32" viewBox="0 0 32 32">
  <defs>
    <clipPath id="clip-path">
      <rect id="Rectangle_6058" data-name="Rectangle 6058" width="32" height="32" transform="translate(699 2122)" fill="#008938"/>
    </clipPath>
  </defs>
  <g id="Mask_Group_10" data-name="Mask Group 10" transform="translate(-699 -2122)" clip-path="url(#clip-path)">
    <path id="_003-sandwich" data-name="003-sandwich" d="M31.292,7.09a3.909,3.909,0,0,0,.435-.8,3.576,3.576,0,0,0-.911-4.022A10.118,10.118,0,0,0,23.763-.49a10.449,10.449,0,0,0-3.971.77A10.629,10.629,0,0,0,12.03.21a10.472,10.472,0,0,0-3.793-.7A10.119,10.119,0,0,0,1.183,2.269,3.576,3.576,0,0,0,.272,6.29a3.914,3.914,0,0,0,.435.8A1.845,1.845,0,0,0,.109,8.4,1.794,1.794,0,0,0,.618,9.61c-.575.642-.421,1.9,1.5,2.178,1.493.221,2.186-.568,2.669.169A2.906,2.906,0,0,0,6.62,13.161a2.476,2.476,0,0,0,2.026-.582.545.545,0,0,1,.811.1,2.591,2.591,0,0,0,1.86,1.009,2.528,2.528,0,0,0,1.963-.751.536.536,0,0,1,.809.029,2.523,2.523,0,0,0,3.826,0,.536.536,0,0,1,.809-.029,2.525,2.525,0,0,0,3.823-.257.544.544,0,0,1,.811-.1,2.5,2.5,0,0,0,3.4-.112c.664-.546.443-1.04,1.641-.749a3.771,3.771,0,0,0,2.307-.155,1.083,1.083,0,0,1,.247.693v.7a1.1,1.1,0,0,1-1.093,1.094H2.14a1.1,1.1,0,0,1-1.093-1.094V12.55a.469.469,0,1,0-.937,0v.407a2.033,2.033,0,0,0,2.03,2.031h26.7a2.269,2.269,0,0,1-.228,1.974,2.852,2.852,0,0,1-2.469,1.3H5.856a2.717,2.717,0,0,1-2.79-2.112.469.469,0,1,0-.921.176,3.462,3.462,0,0,0,1.229,2.022,3.882,3.882,0,0,0,2.481.851H26.144a3.782,3.782,0,0,0,3.266-1.741,3.221,3.221,0,0,0,.409-2.468h.042a2.033,2.033,0,0,0,2.03-2.031v-.7a2.04,2.04,0,0,0-.423-1.238,1.13,1.13,0,0,0-.084-1.41,1.794,1.794,0,0,0,.507-1.21A1.849,1.849,0,0,0,31.292,7.09ZM1.348,10.2a6.133,6.133,0,0,0,1.668.673C2.252,10.957.95,10.654,1.348,10.2Zm-.3-1.8a.921.921,0,0,1,.289-.609A4.446,4.446,0,0,0,4.283,8.866h5.4c-.505.71-2.1,1.358-4.232,1.358C2.854,10.225,1.046,9.262,1.046,8.4Zm25.118,3.345a2.516,2.516,0,0,1-.3.245,1.545,1.545,0,0,1-1.891-.116,1.481,1.481,0,0,0-2.165.23,1.585,1.585,0,0,1-2.419.172,1.475,1.475,0,0,0-1.1-.446,1.491,1.491,0,0,0-1.073.515,1.584,1.584,0,0,1-2.422,0,1.472,1.472,0,0,0-2.176-.069A1.584,1.584,0,0,1,10.2,12.1a1.481,1.481,0,0,0-2.165-.229A1.552,1.552,0,0,1,6,11.882c-.492-.406-.371-.428-.658-.721,2.605.025,4.943-.876,5.376-2.295h.017c.684,2.243,5.916,2.99,8.911,1.579a2.818,2.818,0,0,0,1.624-1.579h.017c.48,1.575,3.114,2.318,5.379,2.295C26.414,11.417,26.44,11.515,26.165,11.743Zm-14.4-2.876h8.464c-.506.71-2.1,1.358-4.232,1.358S12.274,9.576,11.768,8.866Zm18.97,1.518c-.025.243-.845.59-1.753.488a6.132,6.132,0,0,0,1.67-.674A.225.225,0,0,1,30.738,10.384Zm-4.185-.159c-2.128,0-3.726-.648-4.232-1.358h5.4a4.446,4.446,0,0,0,2.948-1.078.923.923,0,0,1,.289.609C30.954,9.262,29.146,10.225,26.552,10.225Zm4.306-4.283a3.309,3.309,0,0,1-3.141,1.988H4.283A3.309,3.309,0,0,1,1.142,5.941a2.667,2.667,0,0,1,.689-3A9.187,9.187,0,0,1,8.237.448a9.632,9.632,0,0,1,2.552.339A6.812,6.812,0,0,0,7.89,3.5a.469.469,0,1,0,.858.379,2.948,2.948,0,0,1,.669-.937,8.825,8.825,0,0,1,2.788-1.8h0a9.711,9.711,0,0,1,6.4-.294,9.625,9.625,0,0,0-1.9,1.414,3.566,3.566,0,0,0-.752,1.186.469.469,0,1,0,.863.366,2.707,2.707,0,0,1,.537-.875,8.81,8.81,0,0,1,2.62-1.726h0A9.5,9.5,0,0,1,23.763.448a9.185,9.185,0,0,1,6.405,2.5A2.666,2.666,0,0,1,30.858,5.941Zm0,0" transform="translate(699 2128.646)" fill="#008938"/>
  </g>
</svg>
