<svg xmlns="http://www.w3.org/2000/svg" xmlns:xlink="http://www.w3.org/1999/xlink" width="32" height="32" viewBox="0 0 32 32">
  <defs>
    <clipPath id="clip-path">
      <rect id="Rectangle_6071" data-name="Rectangle 6071" width="32" height="32" transform="translate(-2321 2512)" fill="#008938"/>
    </clipPath>
  </defs>
  <g id="Mask_Group_17" data-name="Mask Group 17" transform="translate(2321 -2512)" clip-path="url(#clip-path)">
    <path id="_003-chicken-leg" data-name="003-chicken-leg" d="M19.177,22.614a.427.427,0,0,0,.35,0l5.857-2.425.056-.019a10.466,10.466,0,0,0,5.8-13.614,10.461,10.461,0,0,0-17.1-3.5A10.273,10.273,0,0,0,11.82,6.576L7.344,17.37a5.452,5.452,0,0,0-.338,3.319l.019.088L5.15,22.652l-.113-.075a2.969,2.969,0,0,0-3.725.375L.869,23.4a2.961,2.961,0,0,0,0,4.188,3.011,3.011,0,0,0,2.513.838L3.6,28.39l-.031.219a2.961,2.961,0,0,0,5.025,2.513l.444-.444a2.97,2.97,0,0,0,.375-3.732l-.075-.113,1.888-1.888.088.019a5.232,5.232,0,0,0,3.294-.325L16.4,23.9a.458.458,0,0,0-.356-.844l-1.8.744a4.528,4.528,0,0,1-1.838.363l-.394-.006.994-.994a2.961,2.961,0,0,0-4.169-4.207L7.819,19.964l-.006-.394a4.593,4.593,0,0,1,.369-1.85L12.67,6.882A9.546,9.546,0,0,1,30.377,14.02,9.368,9.368,0,0,1,28.271,17.2a9.141,9.141,0,0,1-3.144,2.1l-.031.013a.13.13,0,0,1-.038.013L19.17,21.764a.488.488,0,0,0-.25.25.427.427,0,0,0,0,.35A.458.458,0,0,0,19.177,22.614Zm-9.7-2.981a2.044,2.044,0,0,1,3.507,1.388,1.994,1.994,0,0,1-.575,1.45l-.05.05L8.382,26.5a.457.457,0,0,0,0,.65,2.049,2.049,0,0,1,0,2.888l-.444.444a2.025,2.025,0,0,1-1.431.588H6.488A2.038,2.038,0,0,1,5.05,27.6a.459.459,0,0,0,.131-.325.456.456,0,0,0-.775-.325A2.042,2.042,0,0,1,1.5,24.077l.463-.463a2.076,2.076,0,0,1,2.881,0,.464.464,0,0,0,.656,0Z" transform="translate(-2321.001 2512.005)" fill="#008938"/>
  </g>
</svg>
