<svg xmlns="http://www.w3.org/2000/svg" xmlns:xlink="http://www.w3.org/1999/xlink" width="32" height="32" viewBox="0 0 32 32">
  <defs>
    <clipPath id="clip-path">
      <rect id="Rectangle_6067" data-name="Rectangle 6067" width="32" height="32" transform="translate(-2365 2512)" fill="#008938"/>
    </clipPath>
  </defs>
  <g id="Mask_Group_13" data-name="Mask Group 13" transform="translate(2365 -2512)" clip-path="url(#clip-path)">
    <g id="Icons" transform="translate(-2365.914 2511.086)">
      <path id="Path_9522" data-name="Path 9522" d="M30.688,32.911H3.141A2.23,2.23,0,0,1,.914,30.684V19.657a.457.457,0,0,1,.457-.457,2.286,2.286,0,0,0,0-4.571.457.457,0,0,1-.457-.457V3.145A2.23,2.23,0,0,1,3.141.917H13.467a.457.457,0,0,1,.457.426,1.794,1.794,0,0,0,3.58,0,.457.457,0,0,1,.457-.426H30.688a2.23,2.23,0,0,1,2.227,2.227V19.916a.457.457,0,0,1-.511.454,2.412,2.412,0,1,0-.294,4.806,2.529,2.529,0,0,0,.294-.017.457.457,0,0,1,.511.454v5.071a2.23,2.23,0,0,1-2.227,2.227ZM1.829,20.082v10.6A1.314,1.314,0,0,0,3.141,32H30.688A1.314,1.314,0,0,0,32,30.684v-4.6a3.326,3.326,0,0,1,0-6.649V3.145a1.314,1.314,0,0,0-1.312-1.313H18.352a2.709,2.709,0,0,1-5.277,0H3.141A1.314,1.314,0,0,0,1.829,3.145v10.6a3.2,3.2,0,0,1,0,6.335Z" fill="#008938"/>
      <path id="Path_9523" data-name="Path 9523" d="M10.5,12.011a2.286,2.286,0,1,1,2.286-2.286A2.286,2.286,0,0,1,10.5,12.011Zm0-3.657a1.371,1.371,0,1,0,1.371,1.371A1.371,1.371,0,0,0,10.5,8.354Z" fill="#008938"/>
      <path id="Path_9524" data-name="Path 9524" d="M23.264,26.63a2.286,2.286,0,1,1,2.286-2.286,2.286,2.286,0,0,1-2.286,2.286Zm0-3.657a1.371,1.371,0,1,0,1.371,1.371,1.371,1.371,0,0,0-1.371-1.371Z" fill="#008938"/>
      <path id="Path_9525" data-name="Path 9525" d="M16.914,18.859a1.6,1.6,0,1,1,1.6-1.6A1.6,1.6,0,0,1,16.914,18.859Zm0-2.286a.683.683,0,1,0,.485.2.686.686,0,0,0-.485-.2Z" fill="#008938"/>
      <path id="Path_9526" data-name="Path 9526" d="M9.993,28.666a2.286,2.286,0,1,1,2.286-2.286,2.286,2.286,0,0,1-2.286,2.286Zm0-3.657a1.371,1.371,0,1,0,1.371,1.371,1.371,1.371,0,0,0-1.371-1.371Z" fill="#008938"/>
      <path id="Path_9527" data-name="Path 9527" d="M24.218,10A2.109,2.109,0,1,1,26.326,7.9,2.109,2.109,0,0,1,24.218,10Zm0-3.3A1.195,1.195,0,1,0,25.412,7.9,1.195,1.195,0,0,0,24.218,6.7Z" fill="#008938"/>
    </g>
  </g>
</svg>
