<svg xmlns="http://www.w3.org/2000/svg" xmlns:xlink="http://www.w3.org/1999/xlink" width="32" height="32" viewBox="0 0 32 32">
  <defs>
    <clipPath id="clip-path">
      <rect id="Rectangle_6070" data-name="Rectangle 6070" width="32" height="32" transform="translate(-1997 2512)" fill="#008938"/>
    </clipPath>
  </defs>
  <g id="Mask_Group_16" data-name="Mask Group 16" transform="translate(1997 -2512)" clip-path="url(#clip-path)">
    <g id="_006-chili-sauce" data-name="006-chili-sauce" transform="translate(-1997 2512)">
      <path id="Path_9534" data-name="Path 9534" d="M30.367,7.674,23.012.32a1.1,1.1,0,0,0-1.547,0L13.273,8.512a.469.469,0,1,0,.663.663l5.556-5.556,3.653,3.653a.469.469,0,0,0,.663-.663L20.156,2.956,22.128.983a.157.157,0,0,1,.221,0L29.7,8.337a.157.157,0,0,1,0,.221l-1.973,1.973L25.253,8.053a.469.469,0,1,0-.663.663l2.477,2.478L16.747,21.515,9.172,13.939l3.32-3.32a.469.469,0,0,0-.663-.663L5.873,15.912a1.1,1.1,0,0,0,0,1.547l.6.6L5.433,19.1a.469.469,0,0,0,0,.663l1.092,1.092-3.2,4.484a.475.475,0,0,0-.087.272v3.03a.484.484,0,0,1-.483.483,1.438,1.438,0,1,0,0,2.877H8.579a1.438,1.438,0,1,0,0-2.877H6.027a.483.483,0,0,1-.483-.483V27.225l4.288-3.063,1.092,1.092a.469.469,0,0,0,.663,0l1.04-1.04.6.6a1.1,1.1,0,0,0,1.547,0L30.367,9.221a1.094,1.094,0,0,0,0-1.547ZM6.027,30.061H8.579a.5.5,0,1,1,0,1H2.752a.5.5,0,1,1,0-1A1.422,1.422,0,0,0,4.172,28.64v-1.9l.435.435v1.462a1.421,1.421,0,0,0,1.421,1.421Zm-.9-3.69-.811-.811L7.2,21.528l1.963,1.963Zm8.984-2.22a.156.156,0,0,1-.221,0l-3.242-3.242a.469.469,0,0,0-.663.663l1.979,1.979-.708.708L6.428,19.43l.708-.708,1.4,1.4a.469.469,0,0,0,.663-.663L6.536,16.8a.156.156,0,0,1,0-.221L8.509,14.6l7.575,7.575Z" fill="#008938"/>
      <path id="Path_9535" data-name="Path 9535" d="M14.069,16.044a.469.469,0,0,0,.663,0l.394-.394a1.987,1.987,0,0,0,2.359-.291L19.841,13a11.534,11.534,0,0,1,3.241-2.125.469.469,0,0,0,.04-.812,4.69,4.69,0,0,0-6.1.3l-2.267,2.267a1.983,1.983,0,0,0-.289,2.357l-.4.4a.469.469,0,0,0,0,.663Zm1.348-2.752,2.267-2.267a3.59,3.59,0,0,1,4.236-.606,9.846,9.846,0,0,0-2.742,1.92L16.821,14.7a1.059,1.059,0,0,1-1.4,0,.991.991,0,0,1,0-1.4Z" fill="#008938"/>
    </g>
  </g>
</svg>
