<svg xmlns="http://www.w3.org/2000/svg" xmlns:xlink="http://www.w3.org/1999/xlink" width="32" height="32" viewBox="0 0 32 32">
  <defs>
    <clipPath id="clip-path">
      <rect id="Rectangle_6056" data-name="Rectangle 6056" width="32" height="32" transform="translate(555 2122)" fill="#008938"/>
    </clipPath>
  </defs>
  <g id="Mask_Group_8" data-name="Mask Group 8" transform="translate(-555 -2122)" clip-path="url(#clip-path)">
    <g id="_001-bread" data-name="001-bread" transform="translate(555 2131.519)">
      <path id="Path_9512" data-name="Path 9512" d="M27.164,13.843A29.78,29.78,0,0,0,16,11.9,29,29,0,0,0,4.2,14.126a.469.469,0,0,0,.4.848A19.786,19.786,0,0,1,8.33,13.7,22.722,22.722,0,0,0,5.5,17.881a.97.97,0,0,0,1.308,1.308,23.454,23.454,0,0,0,5.739-4.258A25.206,25.206,0,0,0,14.4,12.872q.8-.035,1.6-.035t1.579.034a23.089,23.089,0,0,0-3.558,5.011.97.97,0,0,0,1.308,1.308,23.453,23.453,0,0,0,5.739-4.258c.482-.482.946-.987,1.383-1.5a25.026,25.026,0,0,1,2.6.647,22.608,22.608,0,0,0-2.513,3.8.97.97,0,0,0,1.308,1.308,22.477,22.477,0,0,0,3.44-2.223.469.469,0,0,0-.577-.739,21.533,21.533,0,0,1-3.3,2.13c-.009,0-.017.009-.034-.009s-.014-.025-.009-.034A21.822,21.822,0,0,1,26,14.4q.41.149.8.311c2.708,1.136,4.261,2.657,4.261,4.173v2a3.042,3.042,0,0,1-3.038,3.038H3.976A3.042,3.042,0,0,1,.937,20.885v-2a3.87,3.87,0,0,1,1.833-2.84.469.469,0,1,0-.556-.755A4.622,4.622,0,0,0,0,18.881v2a3.98,3.98,0,0,0,3.976,3.976H28.024A3.98,3.98,0,0,0,32,20.885v-2c0-1.941-1.718-3.73-4.836-5.038Zm-15.276.425A22.834,22.834,0,0,1,6.38,18.357c-.009,0-.017.009-.034-.009s-.014-.025-.009-.034a22.28,22.28,0,0,1,3.541-4.941,32.568,32.568,0,0,1,3.233-.42c-.389.451-.8.891-1.222,1.316Zm8.517,0A22.834,22.834,0,0,1,14.9,18.357c-.009,0-.017.009-.034-.009s-.014-.025-.009-.034a22.453,22.453,0,0,1,3.953-5.37c.879.068,1.737.167,2.567.3-.312.35-.635.694-.968,1.027Z" transform="translate(0 -11.899)" fill="#008938"/>
    </g>
  </g>
</svg>
